HIERARCHY
ROOT Hips
{
	OFFSET 0.00000 0.00000 0.00000
	CHANNELS 6 Xposition Yposition Zposition Zrotation Yrotation Xrotation 
	JOINT LHipJoint
	{
		OFFSET 0 0 0
		CHANNELS 3 Zrotation Yrotation Xrotation
		JOINT LeftUpLeg
		{
			OFFSET 1.28858 -1.83292 1.03970
			CHANNELS 3 Zrotation Yrotation Xrotation
			JOINT LeftLeg
			{
				OFFSET 2.47846 -6.80952 0.00000
				CHANNELS 3 Zrotation Yrotation Xrotation
				JOINT LeftFoot
				{
					OFFSET 2.75274 -7.56311 0.00000
					CHANNELS 3 Zrotation Yrotation Xrotation
					JOINT LeftToeBase
					{
						OFFSET 0.12848 -0.35301 1.68223
						CHANNELS 3 Zrotation Yrotation Xrotation
						End Site
						{
							OFFSET 0.00000 -0.00000 0.87311
						}
					}
				}
			}
		}
	}
	JOINT RHipJoint
	{
		OFFSET 0 0 0
		CHANNELS 3 Zrotation Yrotation Xrotation
		JOINT RightUpLeg
		{
			OFFSET -1.31183 -1.83292 1.03970
			CHANNELS 3 Zrotation Yrotation Xrotation
			JOINT RightLeg
			{
				OFFSET -2.44740 -6.72417 0.00000
				CHANNELS 3 Zrotation Yrotation Xrotation
				JOINT RightFoot
				{
					OFFSET -2.67343 -7.34519 0.00000
					CHANNELS 3 Zrotation Yrotation Xrotation
					JOINT RightToeBase
					{
						OFFSET -0.16914 -0.46471 1.77626
						CHANNELS 3 Zrotation Yrotation Xrotation
						End Site
						{
							OFFSET -0.00000 -0.00000 0.92777
						}
					}
				}
			}
		}
	}
	JOINT LowerBack
	{
		OFFSET 0 0 0
		CHANNELS 3 Zrotation Yrotation Xrotation
		JOINT Spine
		{
			OFFSET 0.01249 2.14252 0.03842
			CHANNELS 3 Zrotation Yrotation Xrotation
			JOINT Spine1
			{
				OFFSET -0.02957 2.14199 -0.03751
				CHANNELS 3 Zrotation Yrotation Xrotation
				JOINT Neck
				{
					OFFSET 0 0 0
					CHANNELS 3 Zrotation Yrotation Xrotation
					JOINT Neck1
					{
						OFFSET -0.01678 1.65709 -0.05476
						CHANNELS 3 Zrotation Yrotation Xrotation
						JOINT Head
						{
							OFFSET 0.07912 1.58331 -0.11843
							CHANNELS 3 Zrotation Yrotation Xrotation
							End Site
							{
								OFFSET 0.03298 1.73940 -0.04271
							}
						}
					}
				}
				JOINT LeftShoulder
				{
					OFFSET 0 0 0
					CHANNELS 3 Zrotation Yrotation Xrotation
					JOINT LeftArm
					{
						OFFSET 3.39556 1.16496 0.08673
						CHANNELS 3 Zrotation Yrotation Xrotation
						JOINT LeftForeArm
						{
							OFFSET 5.23910 -0.00000 -0.00000
							CHANNELS 3 Zrotation Yrotation Xrotation
							JOINT LeftHand
							{
								OFFSET 3.31467 -0.00000 0.00000
								CHANNELS 3 Zrotation Yrotation Xrotation
								JOINT LeftFingerBase
								{
									OFFSET 0 0 0
									CHANNELS 3 Zrotation Yrotation Xrotation
									JOINT LeftHandIndex1
									{
										OFFSET 0.96590 -0.00000 0.00000
										CHANNELS 3 Zrotation Yrotation Xrotation
										End Site
										{
											OFFSET 0.77873 -0.00000 0.00000
										}
									}
								}
								JOINT LThumb
								{
									OFFSET 0 0 0
									CHANNELS 3 Zrotation Yrotation Xrotation
									End Site
									{
										OFFSET 0.79062 -0.00000 0.79062
									}
								}
							}
						}
					}
				}
				JOINT RightShoulder
				{
					OFFSET 0 0 0
					CHANNELS 3 Zrotation Yrotation Xrotation
					JOINT RightArm
					{
						OFFSET -3.27193 1.31331 0.33940
						CHANNELS 3 Zrotation Yrotation Xrotation
						JOINT RightForeArm
						{
							OFFSET -5.30252 -0.00000 0.00000
							CHANNELS 3 Zrotation Yrotation Xrotation
							JOINT RightHand
							{
								OFFSET -3.67875 -0.00000 0.00000
								CHANNELS 3 Zrotation Yrotation Xrotation
								JOINT RightFingerBase
								{
									OFFSET 0 0 0
									CHANNELS 3 Zrotation Yrotation Xrotation
									JOINT RightHandIndex1
									{
										OFFSET -0.59481 -0.00000 0.00000
										CHANNELS 3 Zrotation Yrotation Xrotation
										End Site
										{
											OFFSET -0.47955 -0.00000 0.00000
										}
									}
								}
								JOINT RThumb
								{
									OFFSET 0 0 0
									CHANNELS 3 Zrotation Yrotation Xrotation
									End Site
									{
										OFFSET -0.48687 -0.00000 0.48687
									}
								}
							}
						}
					}
				}
			}
		}
	}
}
MOTION
Frames: 13
Frame Time: .0083333
10.5715 17.9964 -30.3783 0 0 0 0 0 0 -21 0 0 0 0 0 0 0 0 0 0 0 0 0 0 21 0 0 0 0 0 0 0 0 0 0 0 0 0 0 0 0 0 0 0 0 0 0 -16 0 0 21 0 0 11 0 0 0 -8 0 0 0 0 0 0 0 0 0 0 0 0 0 0 0 0 0 0 0 0 8 0 0 0 0 0 0 0 0 0 0 0 0 0 0 0 0 0
10.5715 17.9964 -30.3783 -19.0062 -85.4346 22.1579 0.0000 0.0000 0.0000 -3.6213 -5.7538 12.2634 0.0247 -1.0143 -2.7883 2.4081 -4.6151 -28.3096 3.6214 11.6389 34.4661 0.0000 0.0000 0.0000 15.6609 8.6943 14.7209 -0.0095 0.6299 -1.7308 -1.2451 -18.8395 -34.8953 -0.1793 -2.7274 7.5206 2.5697 -0.1294 -9.4417 -1.3740 -0.4646 -3.1678 -2.9218 -0.2820 1.9722 0.9303 -1.2026 -0.5720 3.4720 -1.5904 -1.7232 0.9072 -0.8290 -0.4083 -0.0000 0.0000 0.0000 -6.8957 -4.5212 -9.8942 10.4961 -17.5118 -1.6210 -0.0000 0.0000 -6.9119 6.1643 -6.6618 -0.7178 -7.1250 0.0000 -0.0000 -15.0546 23.3135 8.1424 -0.0000 0.0000 0.0000 17.9724 0.5331 -30.7677 -10.4337 17.4150 -1.6023 0.0000 0.0000 17.3785 -20.6375 -42.8911 14.3772 7.1250 -0.0000 -0.0000 28.2094 -73.1107 -19.2008
10.5735 17.9984 -30.3778 -20.1666 -85.3060 23.2228 0.0000 0.0000 0.0000 -3.3004 -5.2232 11.9538 0.0201 -0.9163 -2.5185 2.3307 -2.9551 -28.1408 2.5481 9.9249 28.7339 0.0000 0.0000 0.0000 15.9472 8.8269 14.9074 -0.0095 0.6298 -1.7306 -1.3231 -19.2249 -35.7108 -0.0907 -1.9424 5.3466 2.6801 -0.0648 -9.4202 -1.3885 -0.3841 -3.0512 -2.9911 -0.2367 2.0857 0.9612 -1.2890 -0.8928 3.4940 -1.7170 -1.6140 0.9053 -0.8882 -0.3205 0.0000 0.0000 0.0000 -6.8423 -4.7956 -9.8382 10.5018 -17.5207 -1.6228 -0.0000 0.0000 -6.8680 5.5895 -6.4093 -0.6259 -7.1250 0.0000 -0.0000 -15.4943 23.5651 8.3044 0.0000 0.0000 0.0000 18.1368 0.2774 -30.4914 -10.4551 17.4482 -1.6087 0.0000 0.0000 17.2157 -20.7303 -43.7416 14.6643 7.1250 -0.0000 -0.0000 29.9538 -73.8294 -20.8914
10.5747 17.9999 -30.3760 -20.0583 -85.2186 22.9479 0.0000 0.0000 0.0000 -3.0816 -4.4865 11.6247 0.0165 -0.8306 -2.2827 2.2162 -2.4544 -27.5258 2.3043 9.4731 27.2867 0.0000 0.0000 0.0000 16.1189 8.9856 15.2361 -0.0101 0.6485 -1.7820 -1.4569 -19.2640 -36.4652 -0.1128 -2.1655 5.9634 2.3912 -0.0991 -9.3882 -1.1787 -0.4023 -2.8989 -2.6125 -0.2382 2.2289 0.7352 -1.3146 -1.1317 3.4088 -1.7547 -1.5657 0.9143 -0.9018 -0.2648 0.0000 0.0000 0.0000 -7.1352 -4.9883 -10.1611 10.4216 -17.3963 -1.5987 -0.0000 0.0000 -6.3923 5.0216 -6.0735 -0.5327 -7.1250 0.0000 -0.0000 -15.9403 23.8947 8.4356 0.0000 0.0000 0.0000 17.8166 0.2663 -30.9452 -10.2898 17.1917 -1.5595 0.0000 0.0000 17.6913 -20.4449 -42.9594 14.2543 7.1250 -0.0000 -0.0000 28.5877 -73.0974 -19.4613
10.5756 17.9993 -30.3705 -21.5389 -85.0892 24.2113 0.0000 0.0000 0.0000 -2.8702 -4.1701 11.6346 0.0156 -0.8073 -2.2187 2.1867 -2.5644 -27.3104 2.4708 9.7845 28.2818 0.0000 0.0000 0.0000 16.3322 8.8763 15.5098 -0.0111 0.6795 -1.8673 -1.5708 -19.0147 -36.8223 -0.1847 -2.7680 7.6336 1.7402 -0.1894 -9.5204 -0.5284 -0.4741 -2.6048 -1.5823 -0.2619 2.6141 0.2707 -1.3066 -1.3164 2.9933 -1.7362 -1.7339 0.8630 -0.8872 -0.2856 -0.0000 -0.0000 0.0000 -8.0263 -5.3637 -11.4782 10.2135 -17.0728 -1.5370 -0.0000 0.0000 -4.8859 4.4374 -5.8270 -0.4514 -7.1250 0.0000 -0.0000 -16.3896 24.1358 8.5975 -0.0000 -0.0000 0.0000 16.8334 0.3556 -31.7411 -10.0924 16.8840 -1.5017 0.0000 0.0000 18.4489 -19.8742 -42.1307 13.6307 7.1250 -0.0000 -0.0000 27.6096 -72.2157 -18.2527
10.5767 17.9937 -30.3625 -24.3565 -84.9502 26.7327 0.0000 0.0000 0.0000 -2.8603 -4.7096 12.3058 0.0191 -0.8922 -2.4523 2.3112 -2.6629 -28.0827 2.6624 10.1275 29.3905 0.0000 0.0000 0.0000 16.6359 8.5620 15.7800 -0.0120 0.7067 -1.9422 -1.5584 -19.0596 -36.8006 -0.1481 -2.4798 6.8337 1.9901 -0.2111 -9.2459 -0.4524 -0.5196 -2.5133 -1.6473 -0.2816 2.5537 0.2239 -1.3077 -1.3032 3.0684 -1.7351 -1.8162 0.8947 -0.8880 -0.3118 -0.0000 -0.0000 0.0000 -7.9191 -5.2807 -11.2665 10.1891 -17.0348 -1.5299 -0.0000 0.0000 -4.7378 4.3147 -5.6054 -0.4222 -7.1250 0.0000 -0.0000 -16.5050 24.3494 8.5777 -0.0000 -0.0000 0.0000 16.8874 0.4852 -32.2196 -9.9863 16.7182 -1.4710 0.0000 0.0000 19.2279 -19.7703 -42.0722 13.5416 7.1250 -0.0000 -0.0000 27.6227 -72.1311 -18.2120
10.5773 17.9838 -30.3540 -25.3795 -84.9666 27.4559 0.0000 0.0000 0.0000 -3.1730 -5.4138 13.1290 0.0233 -0.9855 -2.7090 2.4908 -2.8317 -29.1563 2.8966 10.5258 30.6966 0.0000 0.0000 0.0000 16.7732 8.4641 16.2202 -0.0142 0.7700 -2.1161 -1.5059 -19.4404 -36.8933 -0.0645 -1.6383 4.5070 2.1263 -0.1720 -8.9461 -0.5256 -0.4678 -2.4246 -1.7915 -0.2536 2.4801 0.1811 -1.3376 -1.3392 3.3571 -1.7743 -1.8274 0.9911 -0.9091 -0.3060 -0.0000 -0.0000 0.0000 -7.6245 -5.2131 -10.4805 10.2489 -17.1280 -1.5475 -0.0000 0.0000 -5.4318 4.5246 -5.4115 -0.4276 -7.1250 0.0000 -0.0000 -16.3776 24.5353 8.4319 -0.0000 -0.0000 0.0000 17.0809 0.4215 -32.0302 -9.9587 16.6750 -1.4631 0.0000 0.0000 19.1815 -20.2853 -42.2810 13.9644 7.1250 -0.0000 -0.0000 27.4030 -72.4840 -18.2666
10.5758 17.9736 -30.3450 -24.9339 -85.1000 26.8384 0.0000 0.0000 0.0000 -3.6836 -6.1271 13.8241 0.0268 -1.0571 -2.9060 2.6879 -3.1224 -30.2694 3.1617 10.9523 32.1190 0.0000 0.0000 0.0000 16.7437 8.6178 16.6586 -0.0177 0.8584 -2.3594 -1.5082 -19.6556 -37.1139 -0.0438 -1.3507 3.7143 2.1037 -0.1551 -8.8062 -0.6311 -0.4352 -2.3681 -1.8835 -0.2362 2.4619 0.1593 -1.2855 -1.2786 3.5626 -1.7006 -1.9414 1.0601 -0.8758 -0.3502 0.0000 0.0000 0.0000 -7.3708 -5.0262 -9.8832 10.3552 -17.2933 -1.5789 -0.0000 0.0000 -6.1896 4.5962 -5.2202 -0.4191 -7.1250 0.0000 -0.0000 -16.3496 24.7192 8.3432 0.0000 0.0000 0.0000 17.2134 0.4933 -31.8638 -9.9165 16.6089 -1.4510 0.0000 0.0000 19.1658 -20.5082 -42.4823 14.1773 7.1250 -0.0000 -0.0000 27.5301 -72.7291 -18.4978
10.5737 17.9636 -30.3361 -25.4157 -85.1684 27.2511 0.0000 0.0000 0.0000 -3.9546 -6.5794 14.2378 0.0293 -1.1046 -3.0366 2.8161 -3.4063 -30.9527 3.3377 11.2227 33.0346 0.0000 0.0000 0.0000 16.8996 8.9583 17.0531 -0.0210 0.9367 -2.5745 -1.5352 -19.8131 -37.4055 -0.0566 -1.5348 4.2216 2.0806 -0.1902 -8.7940 -0.5911 -0.4798 -2.3267 -1.8340 -0.2571 2.4964 0.1480 -1.1975 -1.2428 3.4613 -1.5803 -2.0427 1.0317 -0.8167 -0.3899 -0.0000 0.0000 0.0000 -7.4219 -4.9401 -10.4763 10.3639 -17.3068 -1.5815 -0.0000 0.0000 -5.8922 4.7937 -5.2812 -0.4423 -7.1250 0.0000 -0.0000 -16.1991 24.6600 8.2834 -0.0000 0.0000 0.0000 17.1800 0.7822 -32.2715 -9.8607 16.5214 -1.4351 0.0000 0.0000 19.7665 -20.0723 -42.6547 13.9061 7.1250 -0.0000 -0.0000 28.4091 -72.7165 -19.1065
10.5708 17.9535 -30.3265 -26.9526 -85.2201 28.7549 0.0000 0.0000 0.0000 -3.8632 -6.4004 14.3037 0.0309 -1.1340 -3.1176 2.8103 -3.4526 -30.9101 3.3541 11.2474 33.1187 0.0000 0.0000 0.0000 17.1791 9.2819 17.3748 -0.0242 1.0033 -2.7578 -1.4726 -20.2406 -37.5042 -0.0333 -1.1779 3.2384 2.1259 -0.1682 -8.8297 -0.5113 -0.4572 -2.2854 -1.7751 -0.2441 2.5603 -0.0029 -1.1894 -1.1428 3.5274 -1.5619 -2.2033 1.0798 -0.8098 -0.4545 0.0000 0.0000 0.0000 -7.5633 -5.0717 -11.2944 10.3479 -17.2820 -1.5767 -0.0000 0.0000 -5.3719 5.3646 -5.3448 -0.5012 -7.1250 0.0000 -0.0000 -15.7779 24.5965 8.0754 0.0000 0.0000 0.0000 17.1216 0.8966 -32.5867 -9.8334 16.4785 -1.4273 0.0000 0.0000 20.2003 -19.5365 -42.8501 13.5671 7.1250 -0.0000 -0.0000 29.4540 -72.6856 -19.8228
10.5661 17.9430 -30.3152 -29.6396 -85.3278 31.4310 0.0000 0.0000 0.0000 -3.6899 -6.1605 14.4235 0.0347 -1.2022 -3.3052 2.7870 -2.8774 -30.8980 3.0980 10.8520 31.7824 0.0000 0.0000 0.0000 17.4373 9.5355 17.5825 -0.0265 1.0515 -2.8905 -1.4540 -20.3882 -37.5554 -0.0250 -1.0201 2.8042 2.2604 -0.1004 -8.9028 -0.4681 -0.3824 -2.2705 -1.7987 -0.2056 2.6191 0.0250 -1.2517 -1.0309 3.5941 -1.6429 -2.2196 1.0970 -0.8523 -0.4762 -0.0000 -0.0000 0.0000 -7.5856 -5.0888 -11.5148 10.4061 -17.3723 -1.5941 -0.0000 0.0000 -5.4311 5.6750 -5.3483 -0.5307 -7.1250 0.0000 -0.0000 -15.5523 24.5915 7.9531 -0.0000 -0.0000 0.0000 17.1667 0.9290 -32.5224 -9.8364 16.4832 -1.4282 0.0000 0.0000 20.2105 -19.2215 -43.0043 13.3767 7.1250 -0.0000 -0.0000 30.1485 -72.6980 -20.3210
10.5616 17.9321 -30.3036 -31.2809 -85.5088 33.1573 0.0000 0.0000 0.0000 -3.7773 -6.2389 14.6055 0.0392 -1.2787 -3.5160 2.8069 -2.0637 -31.2022 2.7145 10.2179 29.6854 0.0000 0.0000 0.0000 17.4242 9.7304 17.6205 -0.0287 1.0928 -3.0041 -1.4757 -20.2742 -37.5530 -0.0413 -1.3111 3.6053 2.3511 0.0027 -9.0580 -0.5173 -0.2576 -2.2962 -1.8881 -0.1432 2.6835 0.1691 -1.2768 -0.8625 3.6060 -1.6734 -2.2961 1.0785 -0.8716 -0.5280 0.0000 -0.0000 0.0000 -7.5034 -5.1957 -11.8363 10.4481 -17.4374 -1.6066 -0.0000 0.0000 -5.3981 5.6226 -5.5032 -0.5409 -7.1250 0.0000 -0.0000 -15.5723 24.4419 8.0204 0.0000 -0.0000 0.0000 17.2701 0.8388 -32.0951 -9.8604 16.5209 -1.4350 0.0000 0.0000 19.7996 -19.1548 -42.9903 13.3250 7.1250 -0.0000 -0.0000 30.1982 -72.6631 -20.3340
10.5574 17.9239 -30.2946 -31.0726 -85.7186 33.1362 0.0000 0.0000 0.0000 -3.8809 -6.0240 14.4182 0.0397 -1.2853 -3.5342 2.7521 -1.4053 -31.0545 2.3032 9.4710 27.2799 0.0000 0.0000 0.0000 17.2035 9.8690 17.5112 -0.0306 1.1299 -3.1064 -1.4360 -20.3309 -37.4066 -0.0393 -1.2788 3.5163 2.3308 0.1044 -9.3013 -0.6225 -0.1258 -2.3510 -1.9720 -0.0785 2.7678 0.1692 -1.3212 -0.7568 3.7224 -1.7290 -2.3385 1.1163 -0.9021 -0.5568 -0.0000 0.0000 0.0000 -7.3911 -5.3787 -12.2287 10.4721 -17.4746 -1.6138 -0.0000 0.0000 -5.2700 5.7802 -5.6844 -0.5745 -7.1250 0.0000 -0.0000 -15.4375 24.2654 8.0115 -0.0000 0.0000 0.0000 17.3670 0.6643 -31.5414 -9.8911 16.5691 -1.4437 0.0000 0.0000 19.2438 -19.1852 -42.8933 13.3236 7.1250 -0.0000 -0.0000 29.9605 -72.5962 -20.1238
